# xmcd
#
# Track frame offsets:
#	150
#	21806
#	44835
#	67307
#	88869
#	110964
#	126731
#	144806
#	165819
#	192642
#
# Disc length: 2848 seconds
#
# Revision: 0
# Processed by: cddbd v1.5.1PL0 Copyright (c) Steve Scherf et al.
# Submitted via: dBpowerAMP V4.0
#
DISCID=9c0b1e0a
DTITLE=CARL SIMS - IT'S JUST A PARTY
DYEAR=2004
DGENRE=Blues
TTITLE0=IT'S JUST A PARTY
TTITLE1=I WANNA DO WRONG WITH YOU
TTITLE2=IT AIN'T A JUKE JOINT
TTITLE3=I'VE BEEN CHEATING
TTITLE4=THE MEMORIES
TTITLE5=PLAYER HATERS
TTITLE6=ITS A LOVE THING
TTITLE7=COOCHIE KEY
TTITLE8=I WOULD BE MISSING YOU
TTITLE9=IT'S JUST A PARTY (REMIX)
EXTD=CARL SIMS-IT'S JUST a PARTY(2004)
EXTT0=
EXTT1=
EXTT2=
EXTT3=
EXTT4=
EXTT5=
EXTT6=
EXTT7=
EXTT8=
EXTT9=
PLAYORDER=
